# ProBuilder 4.2.3
# https://unity3d.com/unity/features/worldbuilding/probuilder
# 3/28/2020 9:00:38 PM

mtllib ./Arch.mtl
o Arch

g Arch
v 0 0 0
v 0.304482 1.530734 0
v 0 0 0.69
v 0.304482 1.530734 0.69
v 0.9142425 1.278163 0
v 0.6600001 0 0
v 0.9142425 1.278163 0.69
v 0.6600001 0 0.69
v 1.171573 2.828427 0
v 1.171573 2.828427 0.69
v 1.638263 2.361737 0
v 1.638263 2.361737 0.69
v 2.469266 3.695518 0
v 2.469266 3.695518 0.69
v 2.721838 3.085757 0
v 2.721838 3.085757 0.69
v 4 4 0
v 4 4 0.69
v 4 3.34 0
v 4 3.34 0.69
v 5.530734 3.695518 0
v 5.530734 3.695518 0.69
v 5.278162 3.085758 0
v 5.278162 3.085758 0.69
v 6.828427 2.828427 0
v 6.828427 2.828427 0.69
v 6.361736 2.361737 0
v 6.361736 2.361737 0.69
v 7.695518 1.530734 0
v 7.695518 1.530734 0.69
v 7.085757 1.278163 0
v 7.085757 1.278163 0.69
v 8 -3.496911E-07 0
v 8 -3.496911E-07 0.69
v 7.34 -2.919921E-07 0
v 7.34 -2.919921E-07 0.69

vt 0 0
vt 0 1.560723
vt 0.69 0
vt 0.69 1.560723
vt 0 1.431963
vt 0 0.1287597
vt -0.69 1.431963
vt -0.69 0.1287597
vt 0 1.44192
vt 0 3.002642
vt 0.69 1.44192
vt 0.69 3.002642
vt 0 2.873883
vt 0 1.570679
vt -0.69 2.873883
vt -0.69 1.570679
vt -2.545517 0
vt -4.10624 0
vt -2.545517 0.69
vt -4.10624 0.69
vt 3.97748 0
vt 2.674277 0
vt 3.97748 0.69
vt 2.674277 0.69
vt -3.14278 0
vt -4.703503 0
vt -3.14278 0.69
vt -4.703503 0.69
vt 4.574743 0
vt 3.27154 0
vt 4.574743 0.69
vt 3.27154 0.69
vt 0 -1.44192
vt 0 -3.002642
vt -0.69 -1.44192
vt -0.69 -3.002642
vt 0 -2.873883
vt 0 -1.57068
vt 0.69 -2.873883
vt 0.69 -1.57068
vt 0 -1.560723
vt -0.69 2.643729E-07
vt -0.69 -1.560723
vt 0 -1.431966
vt 0 -0.1287619
vt 0.69 -1.431966
vt 0.69 -0.1287619
vt 0.304482 1.530734
vt 0.6600001 0
vt 0.9142425 1.278163
vt -0.304482 1.530734
vt -0.9142425 1.278163
vt -0.6600001 0
vt 1.171573 2.828427
vt 1.638263 2.361737
vt -1.171573 2.828427
vt -1.638263 2.361737
vt 2.469266 3.695518
vt 2.721838 3.085757
vt -2.469266 3.695518
vt -2.721838 3.085757
vt 4 4
vt 4 3.34
vt -4 4
vt -4 3.34
vt 5.530734 3.695518
vt 5.278162 3.085758
vt -5.530734 3.695518
vt -5.278162 3.085758
vt 6.828427 2.828427
vt 6.361736 2.361737
vt -6.828427 2.828427
vt -6.361736 2.361737
vt 7.695518 1.530734
vt 7.085757 1.278163
vt -7.695518 1.530734
vt -7.085757 1.278163
vt 8 -3.496911E-07
vt 7.34 -2.919921E-07
vt -8 -3.496911E-07
vt -7.34 -2.919921E-07

vn -0.9807853 0.1950904 0
vn 0.9807853 -0.1950904 0
vn -0.8314696 0.5555702 0
vn 0.8314696 -0.5555702 0
vn -0.5555702 0.8314697 0
vn 0.5555702 -0.8314697 0
vn -0.1950904 0.9807853 0
vn 0.1950904 -0.9807853 0
vn 0.1950903 0.9807853 0
vn -0.1950902 -0.9807853 0
vn 0.5555702 0.8314697 0
vn -0.5555704 -0.8314695 0
vn 0.8314697 0.5555702 0
vn -0.8314695 -0.5555703 0
vn 0.9807853 0.1950903 0
vn -0.9807852 -0.1950907 0
vn 0 0 1
vn 0 0 -1

usemtl ProBuilderDefault
f 3/3/1 4/4/1 2/2/1 1/1/1
f 7/7/2 8/8/2 6/6/2 5/5/2
f 4/11/3 10/12/3 9/10/3 2/9/3
f 12/15/4 7/16/4 5/14/4 11/13/4
f 10/19/5 14/20/5 13/18/5 9/17/5
f 16/23/6 12/24/6 11/22/6 15/21/6
f 14/27/7 18/28/7 17/26/7 13/25/7
f 20/31/8 16/32/8 15/30/8 19/29/8
f 18/27/9 22/28/9 21/26/9 17/25/9
f 24/31/10 20/32/10 19/30/10 23/29/10
f 22/19/11 26/20/11 25/18/11 21/17/11
f 28/23/12 24/24/12 23/22/12 27/21/12
f 26/35/13 30/36/13 29/34/13 25/33/13
f 32/39/14 28/40/14 27/38/14 31/37/14
f 30/42/15 34/43/15 33/41/15 29/1/15
f 36/46/16 32/47/16 31/45/16 35/44/16
f 8/49/17 7/50/17 4/48/17 3/1/17
f 5/52/18 6/53/18 1/1/18 2/51/18
f 7/50/17 12/55/17 10/54/17 4/48/17
f 11/57/18 5/52/18 2/51/18 9/56/18
f 12/55/17 16/59/17 14/58/17 10/54/17
f 15/61/18 11/57/18 9/56/18 13/60/18
f 16/59/17 20/63/17 18/62/17 14/58/17
f 19/65/18 15/61/18 13/60/18 17/64/18
f 20/63/17 24/67/17 22/66/17 18/62/17
f 23/69/18 19/65/18 17/64/18 21/68/18
f 24/67/17 28/71/17 26/70/17 22/66/17
f 27/73/18 23/69/18 21/68/18 25/72/18
f 28/71/17 32/75/17 30/74/17 26/70/17
f 31/77/18 27/73/18 25/72/18 29/76/18
f 32/75/17 36/79/17 34/78/17 30/74/17
f 35/81/18 31/77/18 29/76/18 33/80/18

